<?xml version="1.0" encoding="utf-8"?>
<!-- Generator: Adobe Illustrator 27.5.0, SVG Export Plug-In . SVG Version: 6.00 Build 0)  -->
<svg version="1.1" xmlns="http://www.w3.org/2000/svg" xmlns:xlink="http://www.w3.org/1999/xlink" x="0px" y="0px"
	 viewBox="0 0 750 500" style="enable-background:new 0 0 750 500;" xml:space="preserve">
<g id="BACKGROUND">
	<rect style="fill:#FFFFFF;" width="750" height="500"/>
</g>
<g id="OBJECTS">
	<g>
		<g>
			<g>
				<rect y="313.069" style="fill:#C9D0D1;" width="287.522" height="50.268"/>
				<rect x="462.477" y="313.069" style="fill:#C9D0D1;" width="287.523" height="50.268"/>
				<g>
					<g>
						<path style="fill:#C9D0D1;" d="M375,74.943c-88.687,0-160.582,71.895-160.582,160.582S286.313,396.108,375,396.108
							s160.582-71.895,160.582-160.582S463.687,74.943,375,74.943z M375,347.526c-61.856,0-112-50.144-112-112s50.144-112,112-112
							s112,50.144,112,112S436.856,347.526,375,347.526z"/>
					</g>
				</g>
			</g>
			<g>
				
					<circle style="fill:none;stroke:#000000;stroke-width:0.75;stroke-linecap:round;stroke-linejoin:round;stroke-miterlimit:10;stroke-dasharray:9;" cx="378.715" cy="235.526" r="136"/>
				<g>
					<g>
						
							<circle style="fill:none;stroke:#000000;stroke-width:0.75;stroke-linecap:round;stroke-linejoin:round;stroke-miterlimit:10;" cx="378.715" cy="235.526" r="112"/>
						
							<circle style="fill:none;stroke:#000000;stroke-width:0.75;stroke-linecap:round;stroke-linejoin:round;stroke-miterlimit:10;" cx="378.715" cy="235.526" r="116.333"/>
						
							<circle style="fill:none;stroke:#000000;stroke-width:0.75;stroke-linecap:round;stroke-linejoin:round;stroke-miterlimit:10;" cx="378.715" cy="235.526" r="157"/>
						
							<circle style="fill:none;stroke:#000000;stroke-width:0.75;stroke-linecap:round;stroke-linejoin:round;stroke-miterlimit:10;stroke-dasharray:2;" cx="378.715" cy="235.526" r="160.582"/>
						<g>
							<g>
								<g>
									<g>
										<path style="fill:none;stroke:#000000;stroke-width:0.75;stroke-linecap:round;stroke-linejoin:round;" d="
											M215.86,187.771c10.536-35.246,32.203-65.688,60.92-87.247"/>
										<g>
											<path d="M214.622,192.125c1.357-1.822,3.394-3.979,5.225-5.149l-3.786,0.236l-3.06-2.241
												C213.912,186.944,214.463,189.859,214.622,192.125z"/>
										</g>
									</g>
								</g>
								<g>
									<g>
										<path style="fill:none;stroke:#000000;stroke-width:0.75;stroke-linecap:round;stroke-linejoin:round;" d="
											M220.03,297.501c-7.277-18.927-11.266-39.486-11.266-60.976"/>
										<g>
											<path d="M221.71,301.701c-0.033-2.271,0.27-5.223,1.01-7.266l-2.86,2.492l-3.791,0.086
												C217.992,298.024,220.204,300.001,221.71,301.701z"/>
										</g>
									</g>
								</g>
							</g>
							<g>
								<g>
									<g>
										<path style="fill:none;stroke:#000000;stroke-width:0.75;stroke-linecap:round;stroke-linejoin:round;" d="
											M542.516,192.125c-9.608-35.594-30.488-66.561-58.575-88.835"/>
										<g>
											<path d="M480.357,100.525c2.164,0.691,5.076,1.259,7.246,1.145l-3.215,2.012l-1.183,3.603
												C482.796,105.151,481.547,102.46,480.357,100.525z"/>
										</g>
									</g>
								</g>
								<g>
									<g>
										<path style="fill:none;stroke:#000000;stroke-width:0.75;stroke-linecap:round;stroke-linejoin:round;" d="
											M535.428,301.701c7.794-18.755,12.326-39.208,12.887-60.649"/>
										<g>
											<path d="M548.374,236.526c0.737,2.149,2.019,4.824,3.406,6.497l-3.534-1.379l-3.597,1.201
												C546.118,241.243,547.532,238.635,548.374,236.526z"/>
										</g>
									</g>
								</g>
							</g>
							<g>
								<g>
									<path style="fill:none;stroke:#000000;stroke-width:0.75;stroke-linecap:round;stroke-linejoin:round;" d="
										M444.161,393.419c-20.144,8.412-42.252,13.059-65.446,13.059c-24.509,0-47.806-5.188-68.854-14.526"/>
									<g>
										<path d="M448.311,391.62c-2.27,0.094-5.228-0.13-7.291-0.815l2.568,2.792l0.187,3.788
											C444.735,395.435,446.652,393.171,448.311,391.62z"/>
									</g>
								</g>
							</g>
							<g>
								<g>
									<path style="fill:none;stroke:#000000;stroke-width:0.75;stroke-linecap:round;stroke-linejoin:round;" d="M310.337,80.89
										c20.923-9.205,44.054-14.316,68.378-14.316c26.167,0,50.952,5.914,73.093,16.477"/>
									<g>
										<path d="M306.221,82.767c2.268-0.134,5.23,0.037,7.304,0.685l-2.617-2.746l-0.254-3.784
											C309.729,78.889,307.853,81.187,306.221,82.767z"/>
									</g>
								</g>
							</g>
						</g>
					</g>
					<g>
						<g>
							
								<line style="fill:none;stroke:#000000;stroke-width:0.75;stroke-linecap:round;stroke-linejoin:round;stroke-miterlimit:10;" x1="273.529" y1="356.863" x2="0" y2="356.863"/>
							<g>
								<g>
									
										<line style="fill:none;stroke:#000000;stroke-width:0.75;stroke-linecap:round;stroke-linejoin:round;stroke-miterlimit:10;stroke-dasharray:2;" x1="277.405" y1="360.12" x2="0" y2="360.12"/>
									
										<line style="fill:none;stroke:#000000;stroke-width:0.75;stroke-linecap:round;stroke-linejoin:round;stroke-miterlimit:10;stroke-dasharray:2;" x1="236.163" y1="309.526" x2="0" y2="309.526"/>
								</g>
								
									<line style="fill:none;stroke:#000000;stroke-width:0.75;stroke-linecap:round;stroke-linejoin:round;stroke-miterlimit:10;" x1="237.574" y1="313.069" x2="0" y2="313.069"/>
								
									<line style="fill:none;stroke:#000000;stroke-width:0.75;stroke-linecap:round;stroke-linejoin:round;stroke-miterlimit:10;stroke-dasharray:9;" x1="252.499" y1="334.813" x2="0" y2="334.813"/>
							</g>
						</g>
						<g>
							
								<line style="fill:none;stroke:#000000;stroke-width:0.75;stroke-linecap:round;stroke-linejoin:round;stroke-miterlimit:10;" x1="483.902" y1="356.863" x2="750" y2="356.863"/>
							<g>
								<g>
									
										<line style="fill:none;stroke:#000000;stroke-width:0.75;stroke-linecap:round;stroke-linejoin:round;stroke-miterlimit:10;stroke-dasharray:2;" x1="480.029" y1="360.12" x2="750" y2="360.12"/>
									
										<line style="fill:none;stroke:#000000;stroke-width:0.75;stroke-linecap:round;stroke-linejoin:round;stroke-miterlimit:10;stroke-dasharray:2;" x1="521.265" y1="309.526" x2="750" y2="309.526"/>
								</g>
								
									<line style="fill:none;stroke:#000000;stroke-width:0.75;stroke-linecap:round;stroke-linejoin:round;stroke-miterlimit:10;" x1="519.366" y1="313.069" x2="750" y2="313.069"/>
								
									<line style="fill:none;stroke:#000000;stroke-width:0.75;stroke-linecap:round;stroke-linejoin:round;stroke-miterlimit:10;stroke-dasharray:9;" x1="504.931" y1="334.813" x2="750" y2="334.813"/>
							</g>
						</g>
					</g>
				</g>
			</g>
		</g>
		<g>
			<g>
				<g>
					<g>
						<path style="fill:#F5CD18;" d="M292.318,383.098c-1.481-1.052-3.266-1.498-5.006-1.345c-1.299,0.114-2.573,0.561-3.678,1.345
							c-3.302,2.345-5.827,8.12,3.678,22.252c0.218,0.323,0.434,0.646,0.664,0.979C298.268,391.478,295.695,385.496,292.318,383.098
							z M287.976,392.919c-2.436,0-4.411-1.975-4.411-4.411s1.975-4.411,4.411-4.411s4.411,1.975,4.411,4.411
							S290.412,392.919,287.976,392.919z"/>
					</g>
					<path style="fill:#BFD4D4;" d="M282.616,410.207c0,0.777,3.211,1.406,7.173,1.406s7.173-0.63,7.173-1.406
						c0-0.777-3.211-1.407-7.173-1.407S282.616,409.43,282.616,410.207z"/>
					<g>
						
							<path style="fill:none;stroke:#000000;stroke-width:0.75;stroke-linecap:round;stroke-linejoin:round;stroke-miterlimit:10;" d="
							M293.984,383.098c-1.481-1.052-3.266-1.498-5.006-1.345c-1.299,0.114-2.573,0.561-3.678,1.345
							c-3.302,2.345-5.827,8.12,3.678,22.252c0.218,0.323,0.434,0.646,0.664,0.979C299.935,391.478,297.362,385.496,293.984,383.098
							z M289.642,392.919c-2.436,0-4.411-1.975-4.411-4.411s1.975-4.411,4.411-4.411s4.411,1.975,4.411,4.411
							S292.078,392.919,289.642,392.919z"/>
					</g>
				</g>
				<g>
					
						<polyline style="fill:none;stroke:#000000;stroke-width:0.75;stroke-linecap:round;stroke-linejoin:round;stroke-miterlimit:10;stroke-dasharray:2;" points="
						273.313,360.12 273.313,401.809 168.452,402.134 					"/>
					<g>
						<g>
							<g>
								<g>
									<path style="fill:#D4B115;" d="M150.803,382.493c5.525,4.563,9.047,11.466,9.047,19.191
										c0,13.74-11.138,24.878-24.877,24.878c-3.243,0-6.339-0.627-9.18-1.756c4.301,3.552,9.816,5.686,15.83,5.686
										c13.739,0,24.877-11.138,24.877-24.877C166.501,395.118,159.997,386.147,150.803,382.493z"/>
									<path style="fill:#F5CD18;" d="M159.85,401.684c0-7.726-3.522-14.629-9.047-19.191c-2.841-1.129-5.936-1.757-9.18-1.757
										c-13.739,0-24.877,11.138-24.877,24.877c0,7.726,3.522,14.629,9.047,19.192c2.841,1.129,5.936,1.756,9.18,1.756
										C148.712,426.562,159.85,415.424,159.85,401.684z"/>
								</g>
							</g>
							
								<path style="fill:none;stroke:#000000;stroke-width:0.75;stroke-linecap:round;stroke-linejoin:round;stroke-miterlimit:10;" d="
								M168.271,402.134c0.147,1.139,0.223,2.301,0.223,3.48c0,14.84-12.03,26.871-26.871,26.871"/>
							
								<path style="fill:none;stroke:#000000;stroke-width:0.75;stroke-linecap:round;stroke-linejoin:round;stroke-miterlimit:10;" d="
								M114.753,405.614c0-14.84,12.03-26.871,26.871-26.871"/>
							<g>
								<g>
									<g>
										
											<path style="fill:none;stroke:#000000;stroke-width:0.75;stroke-linecap:round;stroke-linejoin:round;stroke-miterlimit:10;" d="
											M152.343,403.521c-0.262-1.37-0.78-2.648-1.504-3.783l0.648-0.635l-3.166-3.229l-0.646,0.634
											c-1.122-0.746-2.391-1.29-3.754-1.578v-0.904h-4.522v0.904c-1.077,0.228-2.095,0.615-3.029,1.136l-0.595-0.682
											l-3.408,2.972l0.595,0.682c-0.813,1.08-1.427,2.317-1.794,3.656l-0.904-0.053l-0.265,4.514l0.903,0.053
											c0.208,1.383,0.679,2.679,1.356,3.84l-0.671,0.609l3.038,3.35l0.672-0.609c1.095,0.791,2.341,1.384,3.689,1.725
											l-0.035,0.903l4.519,0.176l0.035-0.906c1.376-0.235,2.666-0.726,3.814-1.427l0.62,0.658l3.29-3.103l-0.622-0.659
											c0.769-1.109,1.335-2.367,1.65-3.722l0.906,0.018l0.088-4.521L152.343,403.521z M141.659,412.357
											c-3.746,0-6.783-3.037-6.783-6.783c0-3.746,3.037-6.783,6.783-6.783c3.746,0,6.783,3.037,6.783,6.783
											C148.442,409.32,145.405,412.357,141.659,412.357z"/>
									</g>
								</g>
							</g>
							<g>
								<path style="fill:#FFFFFF;" d="M120.457,409.506c-0.526-3.066-0.28-6.261,0.489-9.322c0.768-3.071,2.206-6.002,4.189-8.527
									c2.011-2.502,4.586-4.549,7.447-5.917c2.86-1.374,5.947-2.165,9.041-2.349c-2.934,1.001-5.739,2.179-8.295,3.719
									c-1.253,0.806-2.496,1.617-3.582,2.619c-1.108,0.967-2.16,2.003-3.049,3.174c-1.843,2.288-3.243,4.928-4.265,7.736
									C121.434,403.458,120.76,406.428,120.457,409.506z"/>
							</g>
							<path d="M142.769,432.484c0,0.633-0.513,1.146-1.146,1.146c-0.633,0-1.146-0.513-1.146-1.146
								c0-0.633,0.513-1.146,1.146-1.146C142.256,431.339,142.769,431.852,142.769,432.484z"/>
							<path d="M142.769,378.743c0,0.633-0.513,1.146-1.146,1.146c-0.633,0-1.146-0.513-1.146-1.146
								c0-0.633,0.513-1.146,1.146-1.146C142.256,377.597,142.769,378.11,142.769,378.743z"/>
						</g>
						<g>
							<g>
								<rect x="148.359" y="443.572" style="fill:none;" width="144.341" height="32.164"/>
								<text transform="matrix(1 0 0 1 154.7777 448.8917)"><tspan x="0" y="0" style="fill:#312C32; font-family:'OpenSans-Light'; font-size:7px;">Lorem ipsum dolor sit amet, consectetuer </tspan><tspan x="3.708" y="8.4" style="fill:#312C32; font-family:'OpenSans-Light'; font-size:7px;">adipiscing elit, sed diam nonummy nibh </tspan><tspan x="-1.553" y="16.8" style="fill:#312C32; font-family:'OpenSans-Light'; font-size:7px;">euismod tincidunt ut laoreet dolore magna </tspan><tspan x="31.467" y="25.2" style="fill:#312C32; font-family:'OpenSans-Light'; font-size:7px;">aliquam erat volutpat. </tspan></text>
							</g>
							<g>
								
									<text transform="matrix(1 0 0 1 191.8697 430.3192)" style="fill:#F5CD18; font-family:'OpenSans-Bold'; font-size:15.4114px;">STEP 03</text>
								
									<polygon style="fill:none;stroke:#F5CD18;stroke-width:0.75;stroke-linecap:round;stroke-linejoin:round;stroke-miterlimit:10;" points="
									180.226,415.213 180.226,434.733 214.688,434.733 220.529,439.408 226.605,434.733 260.832,434.733 260.832,415.213 
																	"/>
							</g>
						</g>
					</g>
				</g>
			</g>
			<g>
				<g>
					<g>
						<path style="fill:#FA721E;" d="M464.696,382.691c-1.481-1.052-3.266-1.498-5.006-1.345c-1.299,0.114-2.573,0.561-3.678,1.345
							c-3.302,2.345-5.827,8.12,3.678,22.252c0.218,0.323,0.434,0.646,0.664,0.978C470.646,391.072,468.073,385.09,464.696,382.691z
							 M460.354,392.513c-2.436,0-4.411-1.975-4.411-4.411s1.975-4.411,4.411-4.411c2.436,0,4.411,1.975,4.411,4.411
							S462.79,392.513,460.354,392.513z"/>
					</g>
					<path style="fill:#BFD4D4;" d="M454.994,409.801c0,0.777,3.211,1.407,7.173,1.407s7.173-0.63,7.173-1.407
						c0-0.777-3.211-1.406-7.173-1.406S454.994,409.024,454.994,409.801z"/>
					<g>
						
							<path style="fill:none;stroke:#000000;stroke-width:0.75;stroke-linecap:round;stroke-linejoin:round;stroke-miterlimit:10;" d="
							M466.363,382.691c-1.481-1.052-3.266-1.498-5.006-1.345c-1.299,0.114-2.573,0.561-3.678,1.345
							c-3.302,2.345-5.827,8.12,3.678,22.252c0.217,0.323,0.434,0.646,0.664,0.978C472.313,391.072,469.74,385.09,466.363,382.691z
							 M462.021,392.513c-2.436,0-4.411-1.975-4.411-4.411s1.975-4.411,4.411-4.411s4.411,1.975,4.411,4.411
							S464.457,392.513,462.021,392.513z"/>
					</g>
				</g>
				<g>
					
						<polyline style="fill:none;stroke:#000000;stroke-width:0.75;stroke-linecap:round;stroke-linejoin:round;stroke-miterlimit:10;stroke-dasharray:2;" points="
						476.688,360.12 476.688,401.809 582.373,402.134 					"/>
					<g>
						<g>
							<g>
								<g>
									<path style="fill:#DE651B;" d="M617.556,382.493c5.526,4.563,9.047,11.466,9.047,19.191
										c0,13.74-11.138,24.878-24.877,24.878c-3.244,0-6.339-0.627-9.18-1.756c4.301,3.552,9.816,5.686,15.83,5.686
										c13.74,0,24.878-11.138,24.878-24.877C633.254,395.118,626.751,386.147,617.556,382.493z"/>
									<path style="fill:#FA721E;" d="M626.604,401.684c0-7.726-3.522-14.629-9.047-19.191c-2.841-1.129-5.936-1.757-9.18-1.757
										c-13.739,0-24.877,11.138-24.877,24.877c0,7.726,3.522,14.629,9.047,19.192c2.841,1.129,5.936,1.756,9.18,1.756
										C615.466,426.562,626.604,415.424,626.604,401.684z"/>
								</g>
							</g>
							
								<path style="fill:none;stroke:#000000;stroke-width:0.75;stroke-linecap:round;stroke-linejoin:round;stroke-miterlimit:10;" d="
								M581.729,402.134c-0.147,1.139-0.223,2.301-0.223,3.48c0,14.84,12.03,26.871,26.871,26.871"/>
							
								<path style="fill:none;stroke:#000000;stroke-width:0.75;stroke-linecap:round;stroke-linejoin:round;stroke-miterlimit:10;" d="
								M635.247,405.614c0-14.84-12.03-26.871-26.871-26.871"/>
							<g>
								<g>
									
										<line style="fill:none;stroke:#000000;stroke-width:0.75;stroke-linecap:round;stroke-linejoin:round;stroke-miterlimit:10;" x1="616.475" y1="419.15" x2="616.475" y2="392.077"/>
									<g>
										
											<polygon style="fill:none;stroke:#000000;stroke-width:0.75;stroke-linecap:round;stroke-linejoin:round;stroke-miterlimit:10;" points="
											599.893,395.442 616.475,395.442 616.475,402.172 599.893,402.172 595.023,398.807 										"/>
									</g>
								</g>
								
									<line style="fill:none;stroke:#000000;stroke-width:0.75;stroke-linecap:round;stroke-linejoin:round;stroke-miterlimit:10;" x1="613.22" y1="419.15" x2="619.73" y2="419.15"/>
							</g>
							<g>
								<path style="fill:#FFFFFF;" d="M587.21,409.506c-0.527-3.066-0.28-6.261,0.489-9.322c0.768-3.071,2.206-6.002,4.189-8.527
									c2.011-2.502,4.586-4.549,7.447-5.917c2.86-1.374,5.947-2.165,9.041-2.349c-2.934,1.001-5.739,2.179-8.295,3.719
									c-1.253,0.806-2.496,1.617-3.582,2.619c-1.108,0.967-2.159,2.003-3.049,3.174c-1.843,2.288-3.243,4.928-4.265,7.736
									C588.187,403.458,587.513,406.428,587.21,409.506z"/>
							</g>
							<path d="M609.522,432.484c0,0.633-0.513,1.146-1.146,1.146s-1.146-0.513-1.146-1.146c0-0.633,0.513-1.146,1.146-1.146
								S609.522,431.852,609.522,432.484z"/>
							<path d="M609.522,378.743c0,0.633-0.513,1.146-1.146,1.146s-1.146-0.513-1.146-1.146c0-0.633,0.513-1.146,1.146-1.146
								S609.522,378.11,609.522,378.743z"/>
						</g>
						<g>
							<g>
								<rect x="457.3" y="443.721" style="fill:none;" width="144.341" height="32.164"/>
								<text transform="matrix(1 0 0 1 463.7193 449.0409)"><tspan x="0" y="0" style="fill:#312C32; font-family:'OpenSans-Light'; font-size:7px;">Lorem ipsum dolor sit amet, consectetuer </tspan><tspan x="3.708" y="8.4" style="fill:#312C32; font-family:'OpenSans-Light'; font-size:7px;">adipiscing elit, sed diam nonummy nibh </tspan><tspan x="-1.553" y="16.8" style="fill:#312C32; font-family:'OpenSans-Light'; font-size:7px;">euismod tincidunt ut laoreet dolore magna </tspan><tspan x="31.467" y="25.2" style="fill:#312C32; font-family:'OpenSans-Light'; font-size:7px;">aliquam erat volutpat. </tspan></text>
							</g>
							<g>
								
									<text transform="matrix(1 0 0 1 500.8114 430.4684)" style="fill:#FA721E; font-family:'OpenSans-Bold'; font-size:15.4114px;">STEP 06</text>
								
									<polygon style="fill:none;stroke:#FA721E;stroke-width:0.75;stroke-linecap:round;stroke-linejoin:round;stroke-miterlimit:10;" points="
									489.167,415.362 489.167,434.882 523.63,434.882 529.471,439.557 535.547,434.882 569.774,434.882 569.774,415.362 								
									"/>
							</g>
						</g>
					</g>
				</g>
			</g>
			<g>
				<g>
					<g>
						<g>
							<path style="fill:#D5289E;" d="M197.816,196.675c-1.481-1.052-3.266-1.498-5.006-1.345c-1.299,0.114-2.573,0.561-3.678,1.345
								c-3.302,2.345-5.827,8.12,3.678,22.252c0.218,0.324,0.434,0.646,0.664,0.979
								C203.766,205.056,201.193,199.073,197.816,196.675z M193.474,206.497c-2.436,0-4.411-1.975-4.411-4.411
								c0-2.436,1.975-4.411,4.411-4.411c2.436,0,4.411,1.975,4.411,4.411C197.885,204.522,195.91,206.497,193.474,206.497z"/>
						</g>
						<ellipse style="fill:#BFD4D4;" cx="195.286" cy="223.785" rx="7.173" ry="1.406"/>
						<g>
							
								<path style="fill:none;stroke:#000000;stroke-width:0.75;stroke-linecap:round;stroke-linejoin:round;stroke-miterlimit:10;" d="
								M199.482,196.675c-1.481-1.052-3.266-1.498-5.006-1.345c-1.299,0.114-2.573,0.561-3.678,1.345
								c-3.302,2.345-5.827,8.12,3.678,22.252c0.217,0.324,0.434,0.646,0.664,0.979
								C205.432,205.056,202.859,199.073,199.482,196.675z M195.14,206.497c-2.436,0-4.411-1.975-4.411-4.411
								c0-2.436,1.975-4.411,4.411-4.411c2.436,0,4.411,1.975,4.411,4.411C199.551,204.522,197.576,206.497,195.14,206.497z"/>
						</g>
					</g>
					<g>
						<g>
							<path d="M90.106,219.906c0,0.633-0.513,1.146-1.146,1.146c-0.633,0-1.146-0.513-1.146-1.146c0-0.633,0.513-1.146,1.146-1.146
								C89.593,218.76,90.106,219.273,90.106,219.906z"/>
							<g>
								
									<path style="fill:none;stroke:#000000;stroke-width:0.75;stroke-linecap:round;stroke-linejoin:round;stroke-miterlimit:10;" d="
									M115.452,189.555c0.147,1.139,0.223,2.301,0.223,3.48c0,14.84-12.03,26.871-26.871,26.871"/>
								
									<polyline style="fill:none;stroke:#000000;stroke-width:0.75;stroke-linecap:round;stroke-linejoin:round;stroke-miterlimit:10;stroke-dasharray:2;" points="
									214.223,230.691 147.931,230.691 140.424,230.691 140.424,189.442 115.452,189.555 								"/>
								<g>
									<g>
										<path style="fill:#BA238A;" d="M98.14,169.914c5.525,4.563,9.047,11.466,9.047,19.191
											c0,13.739-11.138,24.878-24.878,24.878c-3.243,0-6.339-0.627-9.18-1.756c4.301,3.552,9.816,5.686,15.83,5.686
											c13.74,0,24.878-11.138,24.878-24.878C113.838,182.539,107.334,173.568,98.14,169.914z"/>
										<path style="fill:#D5289E;" d="M107.187,189.106c0-7.726-3.522-14.629-9.047-19.191c-2.841-1.129-5.936-1.757-9.18-1.757
											c-13.739,0-24.877,11.138-24.877,24.877c0,7.726,3.522,14.629,9.047,19.192c2.841,1.129,5.936,1.756,9.18,1.756
											C96.049,213.983,107.187,202.845,107.187,189.106z"/>
									</g>
									
										<path style="fill:none;stroke:#000000;stroke-width:0.75;stroke-linecap:round;stroke-linejoin:round;stroke-miterlimit:10;" d="
										M62.09,193.035c0-14.84,12.03-26.871,26.871-26.871"/>
								</g>
								<g>
									<path style="fill:#FFFFFF;" d="M67.794,196.928c-0.527-3.066-0.28-6.261,0.489-9.322c0.768-3.071,2.206-6.002,4.189-8.527
										c2.011-2.502,4.585-4.549,7.447-5.917c2.86-1.374,5.947-2.165,9.041-2.349c-2.934,1.001-5.739,2.179-8.295,3.719
										c-1.253,0.806-2.496,1.617-3.582,2.619c-1.108,0.967-2.16,2.003-3.049,3.174c-1.843,2.288-3.243,4.928-4.265,7.736
										C68.77,190.88,68.097,193.85,67.794,196.928z"/>
								</g>
								<path d="M90.106,166.165c0,0.633-0.513,1.146-1.146,1.146c-0.633,0-1.146-0.513-1.146-1.146
									c0-0.633,0.513-1.146,1.146-1.146C89.593,165.019,90.106,165.532,90.106,166.165z"/>
								<g>
									
										<path style="fill:none;stroke:#000000;stroke-width:0.75;stroke-linecap:round;stroke-linejoin:round;stroke-miterlimit:10;" d="
										M94.021,180.461c-3.595-1.979-8.113-0.668-10.091,2.926c-1.764,3.205-0.908,7.14,1.846,9.358l-6.185,11.237
										c-0.346,0.629-0.117,1.42,0.512,1.766c0.629,0.346,1.42,0.117,1.766-0.512l6.185-11.237
										c3.347,1.139,7.129-0.242,8.894-3.447C98.926,186.957,97.616,182.439,94.021,180.461z M95.308,189.649
										c-1.48,2.689-4.86,3.669-7.549,2.189c-2.689-1.48-3.669-4.86-2.189-7.549c1.48-2.689,4.86-3.669,7.549-2.189
										C95.808,183.58,96.788,186.96,95.308,189.649z"/>
								</g>
							</g>
						</g>
					</g>
				</g>
				<g>
					<g>
						<rect x="16.634" y="256.738" style="fill:none;" width="144.341" height="32.164"/>
						<text transform="matrix(1 0 0 1 23.0534 262.0573)"><tspan x="0" y="0" style="fill:#312C32; font-family:'OpenSans-Light'; font-size:7px;">Lorem ipsum dolor sit amet, consectetuer </tspan><tspan x="3.708" y="8.4" style="fill:#312C32; font-family:'OpenSans-Light'; font-size:7px;">adipiscing elit, sed diam nonummy nibh </tspan><tspan x="-1.553" y="16.8" style="fill:#312C32; font-family:'OpenSans-Light'; font-size:7px;">euismod tincidunt ut laoreet dolore magna </tspan><tspan x="31.467" y="25.2" style="fill:#312C32; font-family:'OpenSans-Light'; font-size:7px;">aliquam erat volutpat. </tspan></text>
					</g>
					<g>
						
							<text transform="matrix(1 0 0 1 60.1454 243.4848)" style="fill:#D5289E; font-family:'OpenSans-Bold'; font-size:15.4114px;">STEP 02</text>
						
							<polygon style="fill:none;stroke:#D5289E;stroke-width:0.75;stroke-linecap:round;stroke-linejoin:round;stroke-miterlimit:10;" points="
							48.501,228.378 48.501,247.898 82.964,247.898 88.805,252.574 94.881,247.898 129.108,247.898 129.108,228.378 						"/>
					</g>
				</g>
			</g>
			<g>
				<g>
					<g>
						<g>
							<path style="fill:#41BE0C;" d="M559.436,196.675c-1.481-1.052-3.266-1.498-5.006-1.345c-1.299,0.114-2.573,0.561-3.678,1.345
								c-3.302,2.345-5.827,8.12,3.678,22.252c0.218,0.324,0.434,0.646,0.664,0.979
								C565.386,205.056,562.813,199.073,559.436,196.675z M555.094,206.497c-2.436,0-4.411-1.975-4.411-4.411
								c0-2.436,1.975-4.411,4.411-4.411s4.411,1.975,4.411,4.411C559.505,204.522,557.53,206.497,555.094,206.497z"/>
						</g>
						<ellipse style="fill:#BFD4D4;" cx="556.907" cy="223.785" rx="7.173" ry="1.406"/>
						<g>
							
								<path style="fill:none;stroke:#000000;stroke-width:0.75;stroke-linecap:round;stroke-linejoin:round;stroke-miterlimit:10;" d="
								M561.102,196.675c-1.481-1.052-3.266-1.498-5.006-1.345c-1.299,0.114-2.573,0.561-3.678,1.345
								c-3.302,2.345-5.827,8.12,3.678,22.252c0.218,0.324,0.434,0.646,0.664,0.979C567.053,205.056,564.48,199.073,561.102,196.675
								z M556.76,206.497c-2.436,0-4.411-1.975-4.411-4.411c0-2.436,1.975-4.411,4.411-4.411c2.436,0,4.411,1.975,4.411,4.411
								C561.171,204.522,559.196,206.497,556.76,206.497z"/>
						</g>
					</g>
					<g>
						<g>
							<g>
								<g>
									<path style="fill:#369E0A;" d="M670.375,169.914c5.526,4.563,9.047,11.466,9.047,19.191
										c0,13.739-11.138,24.878-24.877,24.878c-3.243,0-6.339-0.627-9.18-1.756c4.301,3.552,9.816,5.686,15.83,5.686
										c13.739,0,24.878-11.138,24.878-24.878C686.073,182.539,679.569,173.568,670.375,169.914z"/>
									<path style="fill:#41BE0C;" d="M679.422,189.106c0-7.726-3.522-14.629-9.047-19.191c-2.841-1.129-5.936-1.757-9.18-1.757
										c-13.74,0-24.878,11.138-24.878,24.877c0,7.726,3.522,14.629,9.047,19.192c2.841,1.129,5.936,1.756,9.18,1.756
										C668.284,213.983,679.422,202.845,679.422,189.106z"/>
								</g>
							</g>
							
								<path style="fill:none;stroke:#000000;stroke-width:0.75;stroke-linecap:round;stroke-linejoin:round;stroke-miterlimit:10;" d="
								M634.785,189.555c-0.147,1.139-0.223,2.301-0.223,3.48c0,14.84,12.03,26.871,26.871,26.871"/>
							
								<polyline style="fill:none;stroke:#000000;stroke-width:0.75;stroke-linecap:round;stroke-linejoin:round;stroke-miterlimit:10;stroke-dasharray:2;" points="
								536.015,230.691 602.306,230.691 609.814,230.691 609.814,189.442 634.785,189.555 							"/>
							
								<path style="fill:none;stroke:#000000;stroke-width:0.75;stroke-linecap:round;stroke-linejoin:round;stroke-miterlimit:10;" d="
								M688.303,193.035c0-14.84-12.03-26.871-26.871-26.871"/>
							<g>
								<g>
									
										<rect x="650.814" y="182.416" style="fill:none;stroke:#000000;stroke-width:0.75;stroke-linecap:round;stroke-linejoin:round;stroke-miterlimit:10;" width="21.238" height="21.238"/>
									<g>
										<g>
											
												<rect x="652.668" y="185.921" style="fill:none;stroke:#000000;stroke-width:0.75;stroke-linecap:round;stroke-linejoin:round;stroke-miterlimit:10;" width="3.129" height="16.125"/>
											
												<rect x="657.448" y="193.913" style="fill:none;stroke:#000000;stroke-width:0.75;stroke-linecap:round;stroke-linejoin:round;stroke-miterlimit:10;" width="3.129" height="8.133"/>
											
												<rect x="662.02" y="188.408" style="fill:none;stroke:#000000;stroke-width:0.75;stroke-linecap:round;stroke-linejoin:round;stroke-miterlimit:10;" width="3.129" height="13.638"/>
											
												<rect x="666.593" y="190.494" style="fill:none;stroke:#000000;stroke-width:0.75;stroke-linecap:round;stroke-linejoin:round;stroke-miterlimit:10;" width="3.129" height="11.552"/>
										</g>
									</g>
								</g>
							</g>
							<g>
								<path style="fill:#FFFFFF;" d="M640.028,196.928c-0.526-3.066-0.28-6.261,0.489-9.322c0.768-3.071,2.206-6.002,4.189-8.527
									c2.011-2.502,4.586-4.549,7.447-5.917c2.86-1.374,5.947-2.165,9.041-2.349c-2.934,1.001-5.739,2.179-8.295,3.719
									c-1.253,0.806-2.496,1.617-3.582,2.619c-1.108,0.967-2.159,2.003-3.049,3.174c-1.843,2.288-3.243,4.928-4.265,7.736
									C641.005,190.88,640.331,193.85,640.028,196.928z"/>
							</g>
							<circle cx="661.195" cy="219.906" r="1.146"/>
							<circle cx="661.195" cy="166.165" r="1.146"/>
						</g>
					</g>
				</g>
				<g>
					<g>
						<rect x="589.025" y="256.079" style="fill:none;" width="144.341" height="32.164"/>
						<text transform="matrix(1 0 0 1 595.4436 261.3992)"><tspan x="0" y="0" style="fill:#312C32; font-family:'OpenSans-Light'; font-size:7px;">Lorem ipsum dolor sit amet, consectetuer </tspan><tspan x="3.708" y="8.4" style="fill:#312C32; font-family:'OpenSans-Light'; font-size:7px;">adipiscing elit, sed diam nonummy nibh </tspan><tspan x="-1.553" y="16.8" style="fill:#312C32; font-family:'OpenSans-Light'; font-size:7px;">euismod tincidunt ut laoreet dolore magna </tspan><tspan x="31.467" y="25.2" style="fill:#312C32; font-family:'OpenSans-Light'; font-size:7px;">aliquam erat volutpat. </tspan></text>
					</g>
					<g>
						
							<text transform="matrix(1 0 0 1 632.5356 242.8266)" style="fill:#41BE0C; font-family:'OpenSans-Bold'; font-size:15.4114px;">STEP 05</text>
						
							<polygon style="fill:none;stroke:#41BE0C;stroke-width:0.75;stroke-linecap:round;stroke-linejoin:round;stroke-miterlimit:10;" points="
							620.891,227.72 620.891,247.24 655.354,247.24 661.195,251.915 667.271,247.24 701.498,247.24 701.498,227.72 						"/>
					</g>
				</g>
			</g>
			<g>
				<g>
					<g>
						<g>
							
								<line style="fill:none;stroke:#000000;stroke-width:0.75;stroke-linecap:round;stroke-linejoin:round;" x1="196.517" y1="91.901" x2="197.517" y2="91.901"/>
							
								<line style="fill:none;stroke:#000000;stroke-width:0.75;stroke-linecap:round;stroke-linejoin:round;stroke-dasharray:2.0229,2.0229;" x1="199.54" y1="91.901" x2="291.584" y2="91.901"/>
							<polyline style="fill:none;stroke:#000000;stroke-width:0.75;stroke-linecap:round;stroke-linejoin:round;" points="
								292.595,91.901 293.595,91.901 293.595,92.901 							"/>
							
								<line style="fill:none;stroke:#000000;stroke-width:0.75;stroke-linecap:round;stroke-linejoin:round;" x1="293.595" y1="95.898" x2="293.595" y2="96.898"/>
						</g>
					</g>
					<g>
						<g>
							<path style="fill:#66B1D9;" d="M284.616,57.031c-1.481-1.052-3.266-1.498-5.006-1.345c-1.299,0.114-2.573,0.561-3.678,1.345
								c-3.302,2.345-5.827,8.12,3.678,22.253c0.218,0.323,0.434,0.646,0.664,0.979C290.566,65.411,287.993,59.429,284.616,57.031z
								 M280.273,66.852c-2.436,0-4.411-1.975-4.411-4.411s1.975-4.411,4.411-4.411c2.436,0,4.411,1.975,4.411,4.411
								S282.71,66.852,280.273,66.852z"/>
						</g>
						<path style="fill:#BFD4D4;" d="M274.913,84.14c0,0.777,3.211,1.406,7.173,1.406s7.173-0.63,7.173-1.406
							c0-0.777-3.211-1.406-7.173-1.406S274.913,83.364,274.913,84.14z"/>
						<g>
							
								<path style="fill:none;stroke:#000000;stroke-width:0.75;stroke-linecap:round;stroke-linejoin:round;stroke-miterlimit:10;" d="
								M286.282,57.031c-1.481-1.052-3.266-1.498-5.006-1.345c-1.299,0.114-2.573,0.561-3.678,1.345
								c-3.302,2.345-5.827,8.12,3.678,22.253c0.217,0.323,0.434,0.646,0.664,0.979C292.232,65.411,289.659,59.429,286.282,57.031z
								 M281.94,66.852c-2.436,0-4.411-1.975-4.411-4.411s1.975-4.411,4.411-4.411s4.411,1.975,4.411,4.411
								S284.376,66.852,281.94,66.852z"/>
						</g>
					</g>
					
						<path style="fill:none;stroke:#000000;stroke-width:0.75;stroke-linecap:round;stroke-linejoin:round;stroke-miterlimit:10;" d="
						M196.517,91.901"/>
					<g>
						<g>
							
								<line style="fill:none;stroke:#000000;stroke-width:0.75;stroke-linecap:round;stroke-linejoin:round;" x1="196.517" y1="91.901" x2="196.517" y2="90.901"/>
							
								<line style="fill:none;stroke:#000000;stroke-width:0.75;stroke-linecap:round;stroke-linejoin:round;stroke-dasharray:1.9333,1.9333;" x1="196.517" y1="88.968" x2="196.517" y2="51.269"/>
							<polyline style="fill:none;stroke:#000000;stroke-width:0.75;stroke-linecap:round;stroke-linejoin:round;" points="
								196.517,50.302 196.517,49.302 195.517,49.302 							"/>
							
								<line style="fill:none;stroke:#000000;stroke-width:0.75;stroke-linecap:round;stroke-linejoin:round;stroke-dasharray:2.126,2.126;" x1="193.391" y1="49.302" x2="164.689" y2="49.302"/>
							
								<line style="fill:none;stroke:#000000;stroke-width:0.75;stroke-linecap:round;stroke-linejoin:round;" x1="163.626" y1="49.302" x2="162.626" y2="49.302"/>
						</g>
					</g>
				</g>
				<g>
					<rect x="63.809" y="116.398" style="fill:none;" width="144.341" height="32.164"/>
					<text transform="matrix(1 0 0 1 70.2276 121.7173)"><tspan x="0" y="0" style="fill:#312C32; font-family:'OpenSans-Light'; font-size:7px;">Lorem ipsum dolor sit amet, consectetuer </tspan><tspan x="3.708" y="8.4" style="fill:#312C32; font-family:'OpenSans-Light'; font-size:7px;">adipiscing elit, sed diam nonummy nibh </tspan><tspan x="-1.553" y="16.8" style="fill:#312C32; font-family:'OpenSans-Light'; font-size:7px;">euismod tincidunt ut laoreet dolore magna </tspan><tspan x="31.467" y="25.2" style="fill:#312C32; font-family:'OpenSans-Light'; font-size:7px;">aliquam erat volutpat. </tspan></text>
					<g>
						<g>
							
								<text transform="matrix(1 0 0 1 107.3197 103.1448)" style="fill:#66B1D9; font-family:'OpenSans-Bold'; font-size:15.4114px;">STEP 01</text>
						</g>
						
							<polygon style="fill:none;stroke:#66B1D9;stroke-width:0.75;stroke-linecap:round;stroke-linejoin:round;stroke-miterlimit:10;" points="
							95.676,88.038 95.676,107.559 130.138,107.559 135.979,112.234 142.055,107.559 176.282,107.559 176.282,88.038 						"/>
					</g>
				</g>
				<g>
					<g>
						<g>
							<g>
								<path style="fill:#5594B5;" d="M145.159,29.661c5.525,4.563,9.047,11.466,9.047,19.192
									c0,13.739-11.138,24.877-24.877,24.877c-3.243,0-6.339-0.627-9.18-1.756c4.301,3.552,9.816,5.686,15.83,5.686
									c13.74,0,24.878-11.138,24.878-24.877C160.857,42.286,154.353,33.315,145.159,29.661z"/>
								<path style="fill:#66B1D9;" d="M154.206,48.853c0-7.726-3.522-14.629-9.047-19.192c-2.841-1.129-5.936-1.757-9.18-1.757
									c-13.739,0-24.877,11.138-24.877,24.877c0,7.726,3.522,14.629,9.047,19.192c2.841,1.129,5.936,1.756,9.18,1.756
									C143.068,73.73,154.206,62.592,154.206,48.853z"/>
							</g>
							
								<path style="fill:none;stroke:#000000;stroke-width:0.75;stroke-linecap:round;stroke-linejoin:round;stroke-miterlimit:10;" d="
								M162.626,49.302c0.147,1.139,0.223,2.301,0.223,3.48c0,14.84-12.03,26.871-26.871,26.871"/>
							
								<path style="fill:none;stroke:#000000;stroke-width:0.75;stroke-linecap:round;stroke-linejoin:round;stroke-miterlimit:10;" d="
								M109.108,52.782c0-14.84,12.03-26.871,26.871-26.871"/>
						</g>
						<g>
							<g>
								<g>
									<g>
										
											<path style="fill:none;stroke:#000000;stroke-width:0.75;stroke-linecap:round;stroke-linejoin:round;stroke-miterlimit:10;" d="
											M140.602,39.201c-1.153-0.854-2.585-1.354-4.008-1.475c-3.44-0.293-7.23,1.759-8.062,5.269
											c-0.605,2.554,0.207,5.257,1.545,7.443c1.231,2.009,2.044,4.245,2.196,6.596l0.334,5.164h3.184h3.184l0.334-5.164
											c0.152-2.351,0.965-4.587,2.196-6.596C143.606,47.01,144.22,41.88,140.602,39.201z"/>
									</g>
									<g>
										
											<path style="fill:none;stroke:#000000;stroke-width:0.75;stroke-linecap:round;stroke-linejoin:round;stroke-miterlimit:10;" d="
											M138.409,67.25H133.3c-0.357,0-0.646-0.289-0.646-0.646v-2.708c0-0.357,0.289-0.646,0.646-0.646h5.109
											c0.357,0,0.646,0.289,0.646,0.646v2.708C139.055,66.961,138.766,67.25,138.409,67.25z"/>
										
											<line style="fill:none;stroke:#000000;stroke-width:0.75;stroke-linecap:round;stroke-linejoin:round;stroke-miterlimit:10;" x1="132.654" y1="64.478" x2="139.055" y2="64.478"/>
										
											<line style="fill:none;stroke:#000000;stroke-width:0.75;stroke-linecap:round;stroke-linejoin:round;stroke-miterlimit:10;" x1="132.654" y1="66.042" x2="139.055" y2="66.042"/>
									</g>
								</g>
								
									<path style="fill:none;stroke:#000000;stroke-width:0.75;stroke-linecap:round;stroke-linejoin:round;stroke-miterlimit:10;" d="
									M134.038,62.199c0.251-3.33,0.42-6.706,0.24-10.043c-0.059-1.101-0.115-2.272-0.542-3.3
									c-0.056-0.135-0.122-0.273-0.235-0.365c-0.226-0.183-0.559-0.128-0.832-0.029c-0.393,0.142-0.791,0.394-0.909,0.796
									c-0.672,2.294,4.891,1.631,5.942,1.488c0.702-0.096,2.067-0.244,2.122-1.184c0.017-0.287-0.133-0.566-0.348-0.758
									c-0.214-0.192-0.486-0.307-0.762-0.389c-0.17-0.051-0.355-0.09-0.523-0.03c-0.239,0.086-0.364,0.344-0.454,0.582
									c-0.796,2.104-0.581,4.381-0.554,6.583c0.023,1.909,0.107,3.818,0.23,5.724c0.02,0.309,0.041,0.618,0.064,0.927"/>
							</g>
						</g>
					</g>
					<g>
						<path style="fill:#FFFFFF;" d="M114.813,56.675c-0.526-3.066-0.28-6.261,0.489-9.322c0.768-3.071,2.206-6.002,4.189-8.527
							c2.011-2.502,4.586-4.549,7.447-5.917c2.86-1.374,5.947-2.165,9.041-2.349c-2.934,1.001-5.739,2.179-8.295,3.719
							c-1.253,0.806-2.496,1.617-3.582,2.619c-1.108,0.967-2.159,2.003-3.049,3.174c-1.843,2.288-3.243,4.928-4.265,7.736
							C115.789,50.627,115.116,53.597,114.813,56.675z"/>
					</g>
					<path d="M137.125,79.653c0,0.633-0.513,1.146-1.146,1.146c-0.633,0-1.146-0.513-1.146-1.146s0.513-1.146,1.146-1.146
						C136.612,78.507,137.125,79.02,137.125,79.653z"/>
					<path d="M137.125,25.912c0,0.633-0.513,1.146-1.146,1.146c-0.633,0-1.146-0.513-1.146-1.146s0.513-1.146,1.146-1.146
						C136.612,24.766,137.125,25.279,137.125,25.912z"/>
				</g>
			</g>
			<g>
				<g>
					<g>
						<g>
							
								<line style="fill:none;stroke:#000000;stroke-width:0.75;stroke-linecap:round;stroke-linejoin:round;" x1="553.483" y1="91.901" x2="552.483" y2="91.901"/>
							
								<line style="fill:none;stroke:#000000;stroke-width:0.75;stroke-linecap:round;stroke-linejoin:round;stroke-dasharray:2.0229,2.0229;" x1="550.46" y1="91.901" x2="458.416" y2="91.901"/>
							<polyline style="fill:none;stroke:#000000;stroke-width:0.75;stroke-linecap:round;stroke-linejoin:round;" points="
								457.405,91.901 456.405,91.901 456.405,92.901 							"/>
							
								<line style="fill:none;stroke:#000000;stroke-width:0.75;stroke-linecap:round;stroke-linejoin:round;stroke-dasharray:1.1213,1.1213;" x1="456.405" y1="94.022" x2="456.405" y2="95.704"/>
							
								<line style="fill:none;stroke:#000000;stroke-width:0.75;stroke-linecap:round;stroke-linejoin:round;" x1="456.405" y1="96.265" x2="456.405" y2="97.265"/>
						</g>
					</g>
					<g>
						<g>
							<path style="fill:#16A39B;" d="M472.398,57.031c-1.481-1.052-3.265-1.498-5.006-1.345c-1.299,0.114-2.573,0.561-3.678,1.345
								c-3.302,2.345-5.827,8.12,3.678,22.253c0.218,0.323,0.434,0.646,0.664,0.979C478.349,65.411,475.775,59.429,472.398,57.031z
								 M468.056,66.852c-2.436,0-4.411-1.975-4.411-4.411s1.975-4.411,4.411-4.411s4.411,1.975,4.411,4.411
								S470.492,66.852,468.056,66.852z"/>
						</g>
						<path style="fill:#BFD4D4;" d="M462.696,84.14c0,0.777,3.211,1.406,7.173,1.406s7.173-0.63,7.173-1.406
							c0-0.777-3.211-1.406-7.173-1.406S462.696,83.364,462.696,84.14z"/>
						<g>
							
								<path style="fill:none;stroke:#000000;stroke-width:0.75;stroke-linecap:round;stroke-linejoin:round;stroke-miterlimit:10;" d="
								M474.065,57.031c-1.481-1.052-3.266-1.498-5.006-1.345c-1.299,0.114-2.573,0.561-3.678,1.345
								c-3.302,2.345-5.827,8.12,3.678,22.253c0.218,0.323,0.434,0.646,0.664,0.979C480.015,65.411,477.442,59.429,474.065,57.031z
								 M469.723,66.852c-2.436,0-4.411-1.975-4.411-4.411s1.975-4.411,4.411-4.411s4.411,1.975,4.411,4.411
								S472.159,66.852,469.723,66.852z"/>
						</g>
					</g>
					
						<path style="fill:none;stroke:#000000;stroke-width:0.75;stroke-linecap:round;stroke-linejoin:round;stroke-miterlimit:10;" d="
						M553.483,91.901"/>
					<g>
						<g>
							
								<line style="fill:none;stroke:#000000;stroke-width:0.75;stroke-linecap:round;stroke-linejoin:round;" x1="553.483" y1="91.901" x2="553.483" y2="90.901"/>
							
								<line style="fill:none;stroke:#000000;stroke-width:0.75;stroke-linecap:round;stroke-linejoin:round;stroke-dasharray:1.9333,1.9333;" x1="553.483" y1="88.968" x2="553.483" y2="51.269"/>
							<polyline style="fill:none;stroke:#000000;stroke-width:0.75;stroke-linecap:round;stroke-linejoin:round;" points="
								553.483,50.302 553.483,49.302 554.483,49.302 							"/>
							
								<line style="fill:none;stroke:#000000;stroke-width:0.75;stroke-linecap:round;stroke-linejoin:round;stroke-dasharray:2.126,2.126;" x1="556.609" y1="49.302" x2="585.31" y2="49.302"/>
							
								<line style="fill:none;stroke:#000000;stroke-width:0.75;stroke-linecap:round;stroke-linejoin:round;" x1="586.373" y1="49.302" x2="587.373" y2="49.302"/>
						</g>
					</g>
				</g>
				<g>
					<g>
						<g>
							<g>
								<path style="fill:#12827C;" d="M623.201,29.01c5.525,4.563,9.047,11.466,9.047,19.191c0,13.74-11.138,24.878-24.878,24.878
									c-3.243,0-6.339-0.627-9.18-1.757c4.301,3.552,9.816,5.686,15.83,5.686c13.74,0,24.878-11.138,24.878-24.877
									C638.898,41.635,632.395,32.664,623.201,29.01z"/>
								<path style="fill:#16A39B;" d="M632.248,48.201c0-7.726-3.522-14.629-9.047-19.191c-2.841-1.129-5.936-1.756-9.18-1.756
									c-13.739,0-24.877,11.138-24.877,24.877c0,7.726,3.522,14.629,9.047,19.192c2.841,1.129,5.936,1.757,9.18,1.757
									C621.11,73.079,632.248,61.941,632.248,48.201z"/>
							</g>
						</g>
						<g>
							<path style="fill:#FFFFFF;" d="M592.854,56.023c-0.526-3.066-0.28-6.261,0.489-9.322c0.768-3.071,2.206-6.002,4.189-8.527
								c2.011-2.502,4.586-4.549,7.447-5.917c2.86-1.374,5.947-2.165,9.041-2.349c-2.934,1.001-5.739,2.179-8.295,3.719
								c-1.253,0.806-2.496,1.617-3.582,2.619c-1.108,0.967-2.16,2.003-3.049,3.174c-1.843,2.288-3.243,4.928-4.265,7.736
								C593.831,49.975,593.157,52.945,592.854,56.023z"/>
						</g>
						<path d="M615.167,79.001c0,0.633-0.513,1.146-1.146,1.146c-0.633,0-1.146-0.513-1.146-1.146c0-0.633,0.513-1.146,1.146-1.146
							C614.654,77.856,615.167,78.368,615.167,79.001z"/>
						
							<path style="fill:none;stroke:#000000;stroke-width:0.75;stroke-linecap:round;stroke-linejoin:round;stroke-miterlimit:10;" d="
							M587.373,49.302c-0.147,1.139-0.223,2.301-0.223,3.48c0,14.84,12.03,26.871,26.871,26.871"/>
						<g>
							<path d="M615.167,25.26c0,0.633-0.513,1.146-1.146,1.146c-0.633,0-1.146-0.513-1.146-1.146s0.513-1.146,1.146-1.146
								C614.654,24.114,615.167,24.627,615.167,25.26z"/>
							
								<path style="fill:none;stroke:#000000;stroke-width:0.75;stroke-linecap:round;stroke-linejoin:round;stroke-miterlimit:10;" d="
								M640.891,52.131c0-14.84-12.03-26.871-26.871-26.871"/>
						</g>
						<g>
							<g>
								
									<path style="fill:none;stroke:#000000;stroke-width:0.75;stroke-linecap:round;stroke-linejoin:round;stroke-miterlimit:10;" d="
									M624.676,60.973c-0.297-5.635-4.946-10.116-10.655-10.116c-5.709,0-10.358,4.481-10.655,10.116H624.676z"/>
								
									<path style="fill:none;stroke:#000000;stroke-width:0.75;stroke-linecap:round;stroke-linejoin:round;stroke-miterlimit:10;" d="
									M618.563,44.831c0,2.509-2.034,4.543-4.543,4.543c-2.509,0-4.543-2.034-4.543-4.543c0-2.509,2.034-4.543,4.543-4.543
									C616.53,40.288,618.563,42.322,618.563,44.831z"/>
							</g>
						</g>
					</g>
				</g>
				<g>
					<g>
						<rect x="541.85" y="116.29" style="fill:none;" width="144.341" height="32.164"/>
						<text transform="matrix(1 0 0 1 548.2693 121.6094)"><tspan x="0" y="0" style="fill:#312C32; font-family:'OpenSans-Light'; font-size:7px;">Lorem ipsum dolor sit amet, consectetuer </tspan><tspan x="3.708" y="8.4" style="fill:#312C32; font-family:'OpenSans-Light'; font-size:7px;">adipiscing elit, sed diam nonummy nibh </tspan><tspan x="-1.553" y="16.8" style="fill:#312C32; font-family:'OpenSans-Light'; font-size:7px;">euismod tincidunt ut laoreet dolore magna </tspan><tspan x="31.467" y="25.2" style="fill:#312C32; font-family:'OpenSans-Light'; font-size:7px;">aliquam erat volutpat. </tspan></text>
					</g>
					<g>
						
							<text transform="matrix(1 0 0 1 585.3613 103.0369)" style="fill:#16A39B; font-family:'OpenSans-Bold'; font-size:15.4114px;">STEP 04</text>
						
							<polygon style="fill:none;stroke:#16A39B;stroke-width:0.75;stroke-linecap:round;stroke-linejoin:round;stroke-miterlimit:10;" points="
							573.717,87.93 573.717,107.451 608.18,107.451 614.021,112.126 620.096,107.451 654.324,107.451 654.324,87.93 						"/>
					</g>
				</g>
			</g>
		</g>
		<g>
			<text transform="matrix(1 0 0 1 284.8887 230.7774)" style="fill:#404040; font-family:'OpenSans-Bold'; font-size:36.1809px;">ROADMAP</text>
			<g>
				
					<rect x="300.999" y="235.817" style="fill:none;stroke:#404040;stroke-width:0.5354;stroke-miterlimit:10;" width="152.292" height="29.182"/>
				<g>
					
						<text transform="matrix(1 0 0 1 305.979 256.6182)" style="fill:#404040; font-family:'OpenSans-Light'; font-size:19.1461px; letter-spacing:1;">INFOGRAPHIC</text>
				</g>
			</g>
			<g>
				<g>
					<rect x="300.999" y="269.949" style="fill:#66B1D9;" width="25.382" height="2.22"/>
					<rect x="326.381" y="269.949" style="fill:#D5289E;" width="25.382" height="2.22"/>
					<rect x="351.763" y="269.949" style="fill:#F5CD18;" width="25.382" height="2.22"/>
					<rect x="377.145" y="269.949" style="fill:#FA721E;" width="25.382" height="2.22"/>
					<rect x="402.527" y="269.949" style="fill:#41BE0C;" width="25.382" height="2.22"/>
					<rect x="427.909" y="269.949" style="fill:#16A39B;" width="25.382" height="2.22"/>
				</g>
				<g>
					
						<rect x="300.999" y="271.059" style="fill:none;stroke:#000000;stroke-width:0.75;stroke-linecap:round;stroke-linejoin:round;stroke-miterlimit:10;" width="25.382" height="2.22"/>
					
						<rect x="326.381" y="271.059" style="fill:none;stroke:#000000;stroke-width:0.75;stroke-linecap:round;stroke-linejoin:round;stroke-miterlimit:10;" width="25.382" height="2.22"/>
					
						<rect x="351.763" y="271.059" style="fill:none;stroke:#000000;stroke-width:0.75;stroke-linecap:round;stroke-linejoin:round;stroke-miterlimit:10;" width="25.382" height="2.22"/>
					
						<rect x="377.145" y="271.059" style="fill:none;stroke:#000000;stroke-width:0.75;stroke-linecap:round;stroke-linejoin:round;stroke-miterlimit:10;" width="25.382" height="2.22"/>
					
						<rect x="402.527" y="271.059" style="fill:none;stroke:#000000;stroke-width:0.75;stroke-linecap:round;stroke-linejoin:round;stroke-miterlimit:10;" width="25.382" height="2.22"/>
					
						<rect x="427.909" y="271.059" style="fill:none;stroke:#000000;stroke-width:0.75;stroke-linecap:round;stroke-linejoin:round;stroke-miterlimit:10;" width="25.382" height="2.22"/>
				</g>
			</g>
		</g>
	</g>
</g>
</svg>
